<svg xmlns="http://www.w3.org/2000/svg" xmlns:xlink="http://www.w3.org/1999/xlink" id="Layer_1" x="0" y="0" version="1.1" viewBox="0 0 46.2 46.2" style="enable-background:new 0 0 46.2 46.2" xml:space="preserve"><style type="text/css">.st0{fill:#f15b2c}.st1{fill:#f59222}.st2{fill:#faae42}.st3{fill:#f6e92d}</style><path d="M23.6,41c-9.9,0-13.1-7.5-13.2-14.1c0-13.5,12.4-14.5,16.6-21.8C27.1,17,37.4,16.7,37.5,26.8	C37.6,35.2,33.5,41,23.6,41z" class="st0"/><path d="M23.8,40.7c-7.6,0-10.7-6.6-10.7-11.6c0-10.9,10.1-13.8,13.5-13.8c0,9,8.2,6.6,8.2,14.3	C34.8,36,31.3,40.7,23.8,40.7z" class="st1"/><path d="M23.8,40.3c-5.4,0-7.4-5.4-7.4-9c0-7.7,7.1-9.1,9.5-9.1c0,6.4,5.8,4.7,5.8,10.2C31.7,37,29.2,40.3,23.8,40.3z" class="st2"/><path d="M24,40c-3.5,0-4.6-3.5-4.6-5.8c0-5,4.4-5.8,5.9-5.8c0,4.1,3.7,3,3.7,6.5C29,37.8,27.4,40,24,40z" class="st3"/></svg>